<svg
   width="44.987347mm"
   height="11.133049mm"
   viewBox="0 0 44.987347 11.133049"
   version="1.1"
   id="svg1"
   xmlns="http://www.w3.org/2000/svg"
   xmlns:svg="http://www.w3.org/2000/svg">
  <defs
     id="defs1" />
  <g
     id="layer1"
     transform="translate(-54.618547,-79.832559)">
    <path
       style="font-size:27.8032px;font-family:'Baskerville Old Face';-inkscape-font-specification:'Baskerville Old Face, Normal';stroke-width:0.145426"
       d="m 97.300193,81.772638 h 1.902763 v 0.283549 h -1.902763 v 4.342782 q 0,0.783492 0.268626,1.119275 0.141775,0.186545 0.373087,0.291011 0.231317,0.104465 0.499943,0.104465 0.335783,0 0.559641,-0.134313 0.223853,-0.141774 0.49248,-0.507404 l 0.111923,0.097 q -0.24624,0.44771 -0.693945,0.664102 -0.440247,0.216393 -1.104353,0.216393 -0.880494,0 -1.283432,-0.343244 -0.216394,-0.179084 -0.283549,-0.425323 -0.06716,-0.253703 -0.06716,-0.902882 v -4.521866 h -0.798411 v -0.119389 q 0.485016,-0.156698 0.895417,-0.604408 0.24624,-0.276088 0.395479,-0.544713 0.149234,-0.276088 0.28355,-0.708874 l 0.07461,-0.24624 h 0.276091 z"
       id="path11" />
    <path
       style="font-size:27.8032px;font-family:'Baskerville Old Face';-inkscape-font-specification:'Baskerville Old Face, Normal';stroke-width:0.145426"
       d="m 90.487545,88.115189 v -2.111696 h 0.119388 q 0.20893,0.77603 0.52233,1.238663 0.574558,0.843186 1.343129,0.843186 0.470092,0 0.813339,-0.283549 0.373091,-0.313397 0.373091,-0.887958 0,-0.470094 -0.268626,-0.8208 -0.149239,-0.186546 -0.380556,-0.343244 -0.223853,-0.156699 -0.761107,-0.440248 -0.940185,-0.499942 -1.253586,-0.835724 -0.447706,-0.477557 -0.447706,-1.104351 0,-0.671564 0.447706,-1.156583 0.514867,-0.552175 1.365515,-0.552175 0.380556,0 0.708874,0.134313 l 0.253704,0.111927 q 0.119388,0.04477 0.20893,0.04477 0.141775,0 0.268627,-0.223855 h 0.149234 l 0.08208,1.693835 h -0.156703 q -0.08208,-0.358168 -0.179079,-0.57456 -0.08954,-0.216394 -0.261168,-0.417863 -0.231317,-0.283549 -0.537248,-0.440247 -0.305937,-0.164161 -0.604409,-0.164161 -0.417866,0 -0.716338,0.305935 -0.291008,0.298473 -0.291008,0.738721 0,0.365629 0.261163,0.664102 0.268626,0.291012 0.820803,0.537252 l 0.790952,0.358167 q 0.708873,0.320859 1.059578,0.798416 0.350705,0.477557 0.350705,1.126736 0,0.783491 -0.507402,1.298357 -0.582022,0.596946 -1.492367,0.596946 -0.49248,0 -0.999883,-0.194007 -0.328323,-0.126852 -0.395478,-0.141775 -0.06716,-0.02239 -0.171621,-0.02239 -0.261162,0 -0.395478,0.223855 z"
       id="path10" />
    <path
       id="path8"
       style="font-size:27.8032px;font-family:'Baskerville Old Face';-inkscape-font-specification:'Baskerville Old Face, Normal';stroke-width:0.145426"
       d="m 82.316846,84.966299 q 0,-1.208816 0.895417,-2.156467 1.089424,-1.149122 2.604178,-1.149122 1.514749,0 2.596715,1.149122 0.895417,0.955113 0.895417,2.163929 0,1.193892 -0.850649,2.12662 -1.044656,1.149121 -2.641483,1.149121 -1.596832,0 -2.648947,-1.149121 -0.410401,-0.447709 -0.634259,-0.999885 -0.216389,-0.552175 -0.216389,-1.134197 z m 1.358051,-0.08208 q 0,1.298358 0.582022,2.201238 0.656641,1.007347 1.604291,1.007347 0.402937,0 0.783493,-0.223855 0.380551,-0.223854 0.656641,-0.626793 0.291009,-0.417862 0.470093,-1.044656 0.179085,-0.634255 0.179085,-1.223739 0,-0.61187 -0.194008,-1.231202 -0.186543,-0.626793 -0.507402,-1.074502 -0.611873,-0.843187 -1.499826,-0.843187 -0.84319,0 -1.455057,0.887957 -0.619332,0.887958 -0.619332,2.171392 z" />
    <path
       id="path6"
       style="font-size:27.8032px;font-family:'Baskerville Old Face';-inkscape-font-specification:'Baskerville Old Face, Normal';stroke-width:0.145426"
       d="m 76.332461,87.488396 0.0075,1.372976 v 0.514866 q 0,0.507404 0.05969,0.738721 0.0597,0.238778 0.231317,0.402939 0.208931,0.201469 0.768568,0.298473 v 0.149237 h -3.290665 v -0.149237 q 0.447709,-0.0597 0.641717,-0.164161 0.194008,-0.104465 0.313397,-0.365629 0.08208,-0.171622 0.111927,-0.522328 0.03731,-0.350706 0.03731,-0.999885 v -5.156121 q 0,-0.843186 -0.268626,-1.201354 -0.261164,-0.358168 -0.887957,-0.358168 v -0.186546 l 2.171391,-0.305935 q 0.08208,0.358168 0.08208,0.656641 v 0.141775 q 0.552175,-0.373091 1.037194,-0.52979 0.485019,-0.16416 1.052118,-0.16416 1.134197,0 1.940079,0.679026 0.507402,0.432786 0.783487,1.081965 0.276091,0.649179 0.276091,1.432671 0,0.813339 -0.298472,1.51475 -0.291014,0.701412 -0.835726,1.156583 -0.850651,0.723797 -2.022158,0.723797 -0.559637,0 -0.970037,-0.16416 -0.402939,-0.16416 -0.94019,-0.596946 z m 0,-2.477326 q 0,1.029732 0.08954,1.55206 0.08954,0.522327 0.320858,0.843186 0.208931,0.283549 0.544713,0.455171 0.343245,0.171622 0.69395,0.171622 0.790954,0 1.380438,-0.746182 0.35817,-0.44771 0.552177,-1.05958 0.194007,-0.611869 0.194007,-1.275971 0,-0.641717 -0.186549,-1.253587 -0.179084,-0.619332 -0.507402,-1.059579 -0.559637,-0.761107 -1.365514,-0.761107 -0.395477,0 -0.746183,0.194008 -0.350706,0.194007 -0.559637,0.529789 -0.231316,0.358168 -0.320858,0.895419 -0.08954,0.52979 -0.08954,1.514751 z" />
    <path
       style="font-size:27.8032px;font-family:'Baskerville Old Face';-inkscape-font-specification:'Baskerville Old Face, Normal';stroke-width:0.145426"
       d="m 72.019525,81.772638 h 1.902766 v 0.283549 h -1.902766 v 4.342782 q 0,0.783492 0.268626,1.119275 0.141775,0.186545 0.373091,0.291011 0.231317,0.104465 0.499943,0.104465 0.335782,0 0.559636,-0.134313 0.223856,-0.141774 0.492481,-0.507404 l 0.111928,0.097 q -0.246241,0.44771 -0.69395,0.664102 -0.440248,0.216393 -1.104351,0.216393 -0.880495,0 -1.283433,-0.343244 -0.216394,-0.179084 -0.28355,-0.425323 -0.06716,-0.253703 -0.06716,-0.902882 v -4.521866 h -0.798415 v -0.119389 q 0.485018,-0.156698 0.895418,-0.604408 0.246241,-0.276088 0.395477,-0.544713 0.149236,-0.276088 0.28355,-0.708874 l 0.07462,-0.24624 h 0.276087 z"
       id="path5" />
    <path
       style="font-size:27.8032px;font-family:'Baskerville Old Face';-inkscape-font-specification:'Baskerville Old Face, Normal';stroke-width:0.145426"
       d="m 67.646895,88.24204 q -0.097,-0.447709 -0.097,-0.917804 -0.932728,0.925266 -2.2087,0.925266 -0.932729,0 -1.499827,-0.455171 -0.552175,-0.447709 -0.552175,-1.26851 v -2.596716 l -0.0075,-0.567099 q 0,-0.507404 -0.05969,-0.73872 -0.05969,-0.231317 -0.223855,-0.395477 -0.216393,-0.201469 -0.77603,-0.298473 v -0.156698 h 2.186315 v 3.783145 q 0,0.798416 0.05223,1.18643 0.05969,0.380554 0.208931,0.626794 0.16416,0.253702 0.470095,0.402938 0.305935,0.141775 0.686488,0.141775 0.417862,0 0.783492,-0.16416 0.365629,-0.16416 0.57456,-0.447709 0.216393,-0.291012 0.28355,-0.671565 0.07462,-0.380553 0.07462,-1.253587 v -1.462518 l -0.0075,-0.552175 q 0,-0.507404 -0.05969,-0.73872 -0.05223,-0.231317 -0.223854,-0.395477 -0.208931,-0.201469 -0.77603,-0.298473 v -0.156698 h 2.186314 v 4.051771 q 0,0.768568 0.03731,1.081964 0.04477,0.305935 0.164161,0.499943 0.134313,0.208931 0.313396,0.305935 0.179084,0.08954 0.514866,0.111928 v 0.149236 z"
       id="path4" />
    <path
       id="text1"
       style="font-size:27.8032px;font-family:'Baskerville Old Face';-inkscape-font-specification:'Baskerville Old Face, Normal';stroke-width:0.145426"
       d="m 54.618547,84.966299 q 0,-1.208816 0.895419,-2.156467 1.089427,-1.149122 2.604177,-1.149122 1.514751,0 2.596715,1.149122 0.89542,0.955113 0.89542,2.163929 0,1.193892 -0.850648,2.12662 -1.044656,1.149121 -2.641487,1.149121 -1.596831,0 -2.648948,-1.149121 -0.4104,-0.447709 -0.634255,-0.999885 -0.216393,-0.552175 -0.216393,-1.134197 z m 1.358052,-0.08208 q 0,1.298358 0.582023,2.201238 0.65664,1.007347 1.604292,1.007347 0.402939,0 0.783492,-0.223855 0.380553,-0.223854 0.656641,-0.626793 0.291011,-0.417862 0.470095,-1.044656 0.179084,-0.634255 0.179084,-1.223739 0,-0.61187 -0.194008,-1.231202 -0.186546,-0.626793 -0.507404,-1.074502 -0.61187,-0.843187 -1.499827,-0.843187 -0.843187,0 -1.455056,0.887957 -0.619332,0.887958 -0.619332,2.171392 z" />
    <path
       style="fill:#000000;fill-opacity:1;stroke:#000000;stroke-width:0.508992;stroke-dasharray:none;stroke-opacity:1"
       d="m 88.268748,81.311795 c -4.70794,7.597647 -4.70794,7.597647 -4.70794,7.597647"
       id="path2" />
  </g>
</svg>
